<mxfile host="Electron" modified="2023-05-28T23:23:25.597Z" agent="Mozilla/5.0 (X11; Linux x86_64) AppleWebKit/537.36 (KHTML, like Gecko) draw.io/21.2.8 Chrome/112.0.5615.165 Electron/24.2.0 Safari/537.36" etag="w-YAmMH9VoMU9JW0DtUx" version="21.2.8" type="device" pages="3">
  <diagram id="PyxzDqAM1kMyR6uRJmDw" name="Architecture">
    <mxGraphModel dx="2049" dy="2413" grid="1" gridSize="10" guides="1" tooltips="1" connect="1" arrows="1" fold="1" page="1" pageScale="1" pageWidth="1654" pageHeight="1169" math="0" shadow="0">
      <root>
        <mxCell id="0" />
        <mxCell id="1" parent="0" />
        <mxCell id="A__g3K5XJHRTMdtyT-pL-27" value="" style="verticalLabelPosition=bottom;verticalAlign=top;html=1;shape=mxgraph.basic.rect;fillColor2=none;strokeWidth=1;size=5;indent=4;fillStyle=solid;fontColor=#e3f4ff;fillColor=#E6E6E6;gradientColor=#F2F2F2;gradientDirection=east;top=1;right=1;topLeftStyle=rounded;topRightStyle=rounded;bottomRightStyle=rounded;absoluteCornerSize=1;fillOpacity=100;bottomLeftStyle=rounded;strokeColor=none;points=[[0,0.5,0,0,0],[0.5,0,0,0,0],[0.5,1,0,0,0],[1,0.5,0,0,0]];" parent="1" vertex="1">
          <mxGeometry x="580" y="300" width="760" height="300" as="geometry" />
        </mxCell>
        <mxCell id="A__g3K5XJHRTMdtyT-pL-20" value="" style="verticalLabelPosition=bottom;verticalAlign=top;html=1;shape=mxgraph.basic.rect;fillColor2=none;strokeWidth=1;size=5;indent=4;fillStyle=solid;fontColor=#e3f4ff;fillColor=#98DCF4;gradientColor=#44BDFF;gradientDirection=east;top=1;right=1;topLeftStyle=rounded;topRightStyle=rounded;bottomRightStyle=rounded;absoluteCornerSize=1;fillOpacity=100;bottomLeftStyle=rounded;strokeColor=none;points=[[0,0.5,0,0,0],[0.5,0,0,0,0],[0.5,1,0,0,0],[1,0.5,0,0,0]];" parent="1" vertex="1">
          <mxGeometry x="1160" y="40" width="120" height="200" as="geometry" />
        </mxCell>
        <mxCell id="A__g3K5XJHRTMdtyT-pL-24" style="edgeStyle=orthogonalEdgeStyle;rounded=1;orthogonalLoop=1;jettySize=auto;html=1;" parent="1" source="A__g3K5XJHRTMdtyT-pL-21" target="A__g3K5XJHRTMdtyT-pL-22" edge="1">
          <mxGeometry relative="1" as="geometry" />
        </mxCell>
        <mxCell id="A__g3K5XJHRTMdtyT-pL-25" style="edgeStyle=orthogonalEdgeStyle;rounded=1;orthogonalLoop=1;jettySize=auto;html=1;entryX=0.5;entryY=1;entryDx=0;entryDy=0;entryPerimeter=0;" parent="1" source="A__g3K5XJHRTMdtyT-pL-21" target="A__g3K5XJHRTMdtyT-pL-23" edge="1">
          <mxGeometry relative="1" as="geometry" />
        </mxCell>
        <mxCell id="A__g3K5XJHRTMdtyT-pL-21" value="" style="verticalLabelPosition=bottom;verticalAlign=top;html=1;shape=mxgraph.basic.rect;fillColor2=none;strokeWidth=1;size=5;indent=4;fillStyle=solid;fontColor=#e3f4ff;fillColor=#98DCF4;gradientColor=#44BDFF;gradientDirection=east;top=1;right=1;topLeftStyle=rounded;topRightStyle=rounded;bottomRightStyle=rounded;absoluteCornerSize=1;fillOpacity=100;bottomLeftStyle=rounded;strokeColor=none;points=[[0,0.5,0,0,0],[0.5,0,0,0,0],[0.5,1,0,0,0],[1,0.5,0,0,0]];" parent="1" vertex="1">
          <mxGeometry x="1000" y="40" width="120" height="200" as="geometry" />
        </mxCell>
        <mxCell id="A__g3K5XJHRTMdtyT-pL-22" value="" style="verticalLabelPosition=bottom;verticalAlign=top;html=1;shape=mxgraph.basic.rect;fillColor2=none;strokeWidth=1;size=5;indent=4;fillStyle=solid;fontColor=#e3f4ff;fillColor=#98DCF4;gradientColor=#44BDFF;gradientDirection=east;top=1;right=1;topLeftStyle=rounded;topRightStyle=rounded;bottomRightStyle=rounded;absoluteCornerSize=1;fillOpacity=100;bottomLeftStyle=rounded;strokeColor=none;points=[[0,0.5,0,0,0],[0.5,0,0,0,0],[0.5,1,0,0,0],[1,0.5,0,0,0]];" parent="1" vertex="1">
          <mxGeometry x="920" y="-240" width="120" height="200" as="geometry" />
        </mxCell>
        <mxCell id="A__g3K5XJHRTMdtyT-pL-23" value="" style="verticalLabelPosition=bottom;verticalAlign=top;html=1;shape=mxgraph.basic.rect;fillColor2=none;strokeWidth=1;size=5;indent=4;fillStyle=solid;fontColor=#e3f4ff;fillColor=#98DCF4;gradientColor=#44BDFF;gradientDirection=east;top=1;right=1;topLeftStyle=rounded;topRightStyle=rounded;bottomRightStyle=rounded;absoluteCornerSize=1;fillOpacity=100;bottomLeftStyle=rounded;strokeColor=none;points=[[0,0.5,0,0,0],[0.5,0,0,0,0],[0.5,1,0,0,0],[1,0.5,0,0,0]];" parent="1" vertex="1">
          <mxGeometry x="1080" y="-240" width="120" height="200" as="geometry" />
        </mxCell>
        <mxCell id="EctzXGihR9KTnqsKavzS-5" value="" style="verticalLabelPosition=bottom;verticalAlign=top;html=1;shape=mxgraph.basic.rect;fillColor2=none;strokeWidth=1;size=5;indent=4;fillStyle=solid;fontColor=#e3f4ff;fillColor=#E6E6E6;gradientColor=#F2F2F2;gradientDirection=east;top=1;right=1;topLeftStyle=rounded;topRightStyle=rounded;bottomRightStyle=rounded;absoluteCornerSize=1;fillOpacity=100;bottomLeftStyle=rounded;strokeColor=none;points=[[0,0.5,0,0,0],[0.5,0,0,0,0],[0.5,1,0,0,0],[1,0.5,0,0,0]];" parent="1" vertex="1">
          <mxGeometry x="320" y="120" width="200" height="480" as="geometry" />
        </mxCell>
        <mxCell id="S7l5MEbiZ1EtLznMPsqP-11" style="edgeStyle=orthogonalEdgeStyle;orthogonalLoop=1;jettySize=auto;html=1;entryX=0.5;entryY=0;entryDx=0;entryDy=0;shadow=0;rounded=1;fontFamily=Roboto;fontSource=https%3A%2F%2Ffonts.googleapis.com%2Fcss%3Ffamily%3DRoboto;exitX=1;exitY=0.5;exitDx=0;exitDy=0;exitPerimeter=0;" parent="1" source="EctzXGihR9KTnqsKavzS-6" edge="1">
          <mxGeometry relative="1" as="geometry">
            <Array as="points">
              <mxPoint x="490" y="480" />
              <mxPoint x="490" y="240" />
              <mxPoint x="660" y="240" />
            </Array>
            <mxPoint x="400" y="510" as="sourcePoint" />
            <mxPoint x="660" y="320" as="targetPoint" />
          </mxGeometry>
        </mxCell>
        <mxCell id="S7l5MEbiZ1EtLznMPsqP-13" style="edgeStyle=orthogonalEdgeStyle;rounded=1;orthogonalLoop=1;jettySize=auto;html=1;entryX=0.5;entryY=1;entryDx=0;entryDy=0;shadow=0;startArrow=classic;startFill=1;fontFamily=Roboto;fontSource=https%3A%2F%2Ffonts.googleapis.com%2Fcss%3Ffamily%3DRoboto;" parent="1" edge="1">
          <mxGeometry relative="1" as="geometry">
            <Array as="points">
              <mxPoint x="660" y="580" />
              <mxPoint x="1260" y="580" />
            </Array>
            <mxPoint x="660" y="520" as="sourcePoint" />
            <mxPoint x="1260" y="520" as="targetPoint" />
          </mxGeometry>
        </mxCell>
        <mxCell id="S7l5MEbiZ1EtLznMPsqP-14" style="edgeStyle=orthogonalEdgeStyle;rounded=1;orthogonalLoop=1;jettySize=auto;html=1;entryX=0.5;entryY=1;entryDx=0;entryDy=0;shadow=0;startArrow=classic;startFill=1;fontFamily=Roboto;fontSource=https%3A%2F%2Ffonts.googleapis.com%2Fcss%3Ffamily%3DRoboto;" parent="1" edge="1">
          <mxGeometry relative="1" as="geometry">
            <Array as="points">
              <mxPoint x="860" y="580" />
              <mxPoint x="1060" y="580" />
            </Array>
            <mxPoint x="860" y="520" as="sourcePoint" />
            <mxPoint x="1060" y="520" as="targetPoint" />
          </mxGeometry>
        </mxCell>
        <mxCell id="S7l5MEbiZ1EtLznMPsqP-17" style="edgeStyle=orthogonalEdgeStyle;rounded=1;orthogonalLoop=1;jettySize=auto;html=1;shadow=0;startArrow=classic;startFill=1;fontFamily=Roboto;fontSource=https%3A%2F%2Ffonts.googleapis.com%2Fcss%3Ffamily%3DRoboto;" parent="1" edge="1">
          <mxGeometry relative="1" as="geometry">
            <mxPoint x="860" y="320" as="sourcePoint" />
            <mxPoint x="860" y="240" as="targetPoint" />
          </mxGeometry>
        </mxCell>
        <mxCell id="S7l5MEbiZ1EtLznMPsqP-18" style="edgeStyle=orthogonalEdgeStyle;rounded=1;orthogonalLoop=1;jettySize=auto;html=1;entryX=0.5;entryY=1;entryDx=0;entryDy=0;shadow=0;startArrow=classic;startFill=1;fontFamily=Roboto;fontSource=https%3A%2F%2Ffonts.googleapis.com%2Fcss%3Ffamily%3DRoboto;" parent="1" edge="1">
          <mxGeometry relative="1" as="geometry">
            <mxPoint x="1060" y="320" as="sourcePoint" />
            <mxPoint x="1060" y="240" as="targetPoint" />
          </mxGeometry>
        </mxCell>
        <mxCell id="S7l5MEbiZ1EtLznMPsqP-12" style="edgeStyle=orthogonalEdgeStyle;rounded=1;orthogonalLoop=1;jettySize=auto;html=1;entryX=0.5;entryY=0;entryDx=0;entryDy=0;shadow=0;fontFamily=Roboto;fontSource=https%3A%2F%2Ffonts.googleapis.com%2Fcss%3Ffamily%3DRoboto;exitX=1;exitY=0.5;exitDx=0;exitDy=0;exitPerimeter=0;entryPerimeter=0;" parent="1" source="sNI8qB8jOJaMZQTXjaB0-1" target="sNI8qB8jOJaMZQTXjaB0-2" edge="1">
          <mxGeometry relative="1" as="geometry">
            <mxPoint x="380" y="220" as="sourcePoint" />
            <mxPoint x="660" y="320" as="targetPoint" />
          </mxGeometry>
        </mxCell>
        <mxCell id="sNI8qB8jOJaMZQTXjaB0-1" value="" style="verticalLabelPosition=bottom;verticalAlign=top;html=1;shape=mxgraph.basic.rect;fillColor2=none;strokeWidth=1;size=5;indent=4;fillStyle=solid;fillColor=#ffea61;gradientDirection=east;top=1;right=1;topLeftStyle=rounded;topRightStyle=rounded;bottomRightStyle=rounded;absoluteCornerSize=1;strokeColor=none;gradientColor=#FFD400;bottomLeftStyle=rounded;points=[[0,0.5,0,0,0],[0.5,0,0,0,0],[0.5,1,0,0,0],[1,0.5,0,0,0]];" parent="1" vertex="1">
          <mxGeometry x="340" y="140" width="120" height="200" as="geometry" />
        </mxCell>
        <mxCell id="sNI8qB8jOJaMZQTXjaB0-2" value="" style="verticalLabelPosition=bottom;verticalAlign=top;html=1;shape=mxgraph.basic.rect;fillColor2=none;strokeWidth=1;size=5;indent=5;fillStyle=solid;fontColor=#e3f4ff;fillColor=#f06363;gradientColor=#fd0606;gradientDirection=east;top=1;right=1;topLeftStyle=rounded;topRightStyle=rounded;bottomRightStyle=rounded;bottomLeftStyle=rounded;absoluteCornerSize=1;strokeColor=none;points=[[0,0.5,0,0,0],[0.5,0,0,0,0],[0.5,1,0,0,0],[1,0.5,0,0,0]];" parent="1" vertex="1">
          <mxGeometry x="600" y="320" width="120" height="200" as="geometry" />
        </mxCell>
        <mxCell id="sNI8qB8jOJaMZQTXjaB0-3" value="&lt;h1&gt;&lt;font face=&quot;Roboto&quot;&gt;&lt;b&gt;Home&lt;/b&gt;&lt;/font&gt;&lt;/h1&gt;" style="text;html=1;strokeColor=none;fillColor=none;align=center;verticalAlign=middle;whiteSpace=wrap;rounded=0;fontColor=#F9DBDB;" parent="1" vertex="1">
          <mxGeometry x="610" y="400" width="100" height="40" as="geometry" />
        </mxCell>
        <mxCell id="sNI8qB8jOJaMZQTXjaB0-4" value="" style="verticalLabelPosition=bottom;verticalAlign=top;html=1;shape=mxgraph.basic.rect;fillColor2=none;strokeWidth=1;size=5;indent=4;fillStyle=solid;fontColor=#e3f4ff;fillColor=#4874EC;gradientColor=#1D4AAA;gradientDirection=east;top=1;right=1;topLeftStyle=rounded;topRightStyle=rounded;bottomRightStyle=rounded;absoluteCornerSize=1;fillOpacity=100;bottomLeftStyle=rounded;strokeColor=none;points=[[0,0.5,0,0,0],[0.5,0,0,0,0],[0.5,1,0,0,0],[1,0.5,0,0,0]];" parent="1" vertex="1">
          <mxGeometry x="1400" y="-240" width="120" height="200" as="geometry" />
        </mxCell>
        <mxCell id="sNI8qB8jOJaMZQTXjaB0-5" value="&lt;h1&gt;&lt;font face=&quot;Roboto&quot; color=&quot;#e3f4ff&quot;&gt;Profile picture&lt;/font&gt;&lt;/h1&gt;" style="text;html=1;strokeColor=none;fillColor=none;align=center;verticalAlign=middle;whiteSpace=wrap;rounded=0;" parent="1" vertex="1">
          <mxGeometry x="1410" y="-160" width="100" height="40" as="geometry" />
        </mxCell>
        <mxCell id="sNI8qB8jOJaMZQTXjaB0-6" value="" style="verticalLabelPosition=bottom;verticalAlign=top;html=1;shape=mxgraph.basic.rect;fillColor2=none;strokeWidth=1;size=5;indent=4;fillStyle=solid;fontColor=#e3f4ff;fillColor=#98DCF4;gradientColor=#44BDFF;gradientDirection=east;top=1;right=1;topLeftStyle=rounded;topRightStyle=rounded;bottomRightStyle=rounded;absoluteCornerSize=1;fillOpacity=100;bottomLeftStyle=rounded;strokeColor=none;points=[[0,0.5,0,0,0],[0.5,0,0,0,0],[0.5,1,0,0,0],[1,0.5,0,0,0]];" parent="1" vertex="1">
          <mxGeometry x="800" y="40" width="120" height="200" as="geometry" />
        </mxCell>
        <mxCell id="sNI8qB8jOJaMZQTXjaB0-7" value="&lt;h1 style=&quot;text-align: left;&quot;&gt;&lt;font face=&quot;Roboto&quot; color=&quot;#063d76&quot;&gt;Book&lt;/font&gt;&lt;/h1&gt;" style="text;html=1;strokeColor=none;fillColor=none;align=center;verticalAlign=middle;whiteSpace=wrap;rounded=0;" parent="1" vertex="1">
          <mxGeometry x="810" y="120" width="100" height="40" as="geometry" />
        </mxCell>
        <mxCell id="sNI8qB8jOJaMZQTXjaB0-8" value="&lt;h1&gt;&lt;font face=&quot;Roboto&quot;&gt;&lt;b&gt;Sign Up&lt;/b&gt;&lt;/font&gt;&lt;/h1&gt;" style="text;html=1;strokeColor=none;fillColor=none;align=center;verticalAlign=middle;whiteSpace=wrap;rounded=0;fontColor=#786400;" parent="1" vertex="1">
          <mxGeometry x="350" y="220" width="100" height="40" as="geometry" />
        </mxCell>
        <mxCell id="EctzXGihR9KTnqsKavzS-6" value="" style="verticalLabelPosition=bottom;verticalAlign=top;html=1;shape=mxgraph.basic.rect;fillColor2=none;strokeWidth=1;size=5;indent=4;fillStyle=solid;fillColor=#ffea61;gradientDirection=east;top=1;right=1;topLeftStyle=rounded;topRightStyle=rounded;bottomRightStyle=rounded;absoluteCornerSize=1;strokeColor=none;gradientColor=#FFD400;bottomLeftStyle=rounded;points=[[0,0.5,0,0,0],[0.5,0,0,0,0],[0.5,1,0,0,0],[1,0.5,0,0,0]];" parent="1" vertex="1">
          <mxGeometry x="340" y="380" width="120" height="200" as="geometry" />
        </mxCell>
        <mxCell id="EctzXGihR9KTnqsKavzS-4" value="&lt;h1&gt;&lt;font face=&quot;Roboto&quot;&gt;&lt;b&gt;Log In&lt;/b&gt;&lt;/font&gt;&lt;/h1&gt;" style="text;html=1;strokeColor=none;fillColor=none;align=center;verticalAlign=middle;whiteSpace=wrap;rounded=0;fontColor=#786400;" parent="1" vertex="1">
          <mxGeometry x="350" y="460" width="100" height="40" as="geometry" />
        </mxCell>
        <mxCell id="A__g3K5XJHRTMdtyT-pL-4" style="edgeStyle=orthogonalEdgeStyle;rounded=1;orthogonalLoop=1;jettySize=auto;html=1;entryX=0.5;entryY=0;entryDx=0;entryDy=0;entryPerimeter=0;" parent="1" source="A__g3K5XJHRTMdtyT-pL-1" target="EctzXGihR9KTnqsKavzS-5" edge="1">
          <mxGeometry relative="1" as="geometry">
            <Array as="points">
              <mxPoint x="420" y="-20" />
            </Array>
          </mxGeometry>
        </mxCell>
        <mxCell id="A__g3K5XJHRTMdtyT-pL-26" style="edgeStyle=orthogonalEdgeStyle;rounded=1;orthogonalLoop=1;jettySize=auto;html=1;entryX=0.5;entryY=0;entryDx=0;entryDy=0;entryPerimeter=0;" parent="1" source="A__g3K5XJHRTMdtyT-pL-1" target="sNI8qB8jOJaMZQTXjaB0-2" edge="1">
          <mxGeometry relative="1" as="geometry" />
        </mxCell>
        <mxCell id="A__g3K5XJHRTMdtyT-pL-1" value="" style="verticalLabelPosition=bottom;verticalAlign=top;html=1;shape=mxgraph.basic.rect;fillColor2=none;strokeWidth=1;size=5;indent=4;fillStyle=solid;fontColor=#e3f4ff;fillColor=#81FBB8;gradientColor=#28CF6F;gradientDirection=east;top=1;right=1;topLeftStyle=rounded;topRightStyle=rounded;bottomRightStyle=rounded;absoluteCornerSize=1;fillOpacity=100;bottomLeftStyle=rounded;strokeColor=none;points=[[0,0.5,0,0,0],[0.5,0.03,0,0,0],[0.5,1,0,0,0],[1,0.5,0,0,0]];" parent="1" vertex="1">
          <mxGeometry x="280" y="-120" width="120" height="200" as="geometry" />
        </mxCell>
        <mxCell id="A__g3K5XJHRTMdtyT-pL-2" value="&lt;h1&gt;&lt;font face=&quot;Roboto&quot;&gt;&lt;b&gt;Splash Screen&lt;/b&gt;&lt;/font&gt;&lt;/h1&gt;" style="text;html=1;strokeColor=none;fillColor=none;align=center;verticalAlign=middle;whiteSpace=wrap;rounded=0;fontColor=#146336;" parent="1" vertex="1">
          <mxGeometry x="290" y="-40" width="100" height="40" as="geometry" />
        </mxCell>
        <mxCell id="A__g3K5XJHRTMdtyT-pL-6" value="&lt;h1 style=&quot;&quot;&gt;&lt;font face=&quot;Roboto&quot; color=&quot;#063d76&quot;&gt;Add new vehicle menu&lt;/font&gt;&lt;/h1&gt;" style="text;html=1;strokeColor=none;fillColor=none;align=center;verticalAlign=middle;whiteSpace=wrap;rounded=0;" parent="1" vertex="1">
          <mxGeometry x="1010" y="120" width="100" height="40" as="geometry" />
        </mxCell>
        <mxCell id="A__g3K5XJHRTMdtyT-pL-8" value="&lt;h1 style=&quot;&quot;&gt;&lt;font face=&quot;Roboto&quot; color=&quot;#063d76&quot;&gt;Edit vehicle&lt;/font&gt;&lt;/h1&gt;" style="text;html=1;strokeColor=none;fillColor=none;align=center;verticalAlign=middle;whiteSpace=wrap;rounded=0;" parent="1" vertex="1">
          <mxGeometry x="1170" y="120" width="100" height="40" as="geometry" />
        </mxCell>
        <mxCell id="A__g3K5XJHRTMdtyT-pL-10" value="&lt;h1 style=&quot;&quot;&gt;&lt;font face=&quot;Roboto&quot; color=&quot;#063d76&quot;&gt;Add new vehicle&lt;/font&gt;&lt;/h1&gt;" style="text;html=1;strokeColor=none;fillColor=none;align=center;verticalAlign=middle;whiteSpace=wrap;rounded=0;" parent="1" vertex="1">
          <mxGeometry x="930" y="-160" width="100" height="40" as="geometry" />
        </mxCell>
        <mxCell id="A__g3K5XJHRTMdtyT-pL-12" value="&lt;h1 style=&quot;&quot;&gt;&lt;font face=&quot;Roboto&quot; color=&quot;#063d76&quot;&gt;Ask module&lt;/font&gt;&lt;/h1&gt;" style="text;html=1;strokeColor=none;fillColor=none;align=center;verticalAlign=middle;whiteSpace=wrap;rounded=0;" parent="1" vertex="1">
          <mxGeometry x="1090" y="-160" width="100" height="40" as="geometry" />
        </mxCell>
        <mxCell id="A__g3K5XJHRTMdtyT-pL-13" value="" style="verticalLabelPosition=bottom;verticalAlign=top;html=1;shape=mxgraph.basic.rect;fillColor2=none;strokeWidth=1;size=5;indent=5;fillStyle=solid;fontColor=#e3f4ff;fillColor=#f06363;gradientColor=#fd0606;gradientDirection=east;top=1;right=1;topLeftStyle=rounded;topRightStyle=rounded;bottomRightStyle=rounded;bottomLeftStyle=rounded;absoluteCornerSize=1;strokeColor=none;points=[[0,0.5,0,0,0],[0.5,0,0,0,0],[0.5,1,0,0,0],[1,0.5,0,0,0]];" parent="1" vertex="1">
          <mxGeometry x="800" y="320" width="120" height="200" as="geometry" />
        </mxCell>
        <mxCell id="A__g3K5XJHRTMdtyT-pL-14" value="&lt;h1&gt;&lt;font face=&quot;Roboto&quot;&gt;&lt;b&gt;Search&lt;/b&gt;&lt;/font&gt;&lt;/h1&gt;" style="text;html=1;strokeColor=none;fillColor=none;align=center;verticalAlign=middle;whiteSpace=wrap;rounded=0;fontColor=#F9DBDB;" parent="1" vertex="1">
          <mxGeometry x="810" y="400" width="100" height="40" as="geometry" />
        </mxCell>
        <mxCell id="A__g3K5XJHRTMdtyT-pL-15" value="" style="verticalLabelPosition=bottom;verticalAlign=top;html=1;shape=mxgraph.basic.rect;fillColor2=none;strokeWidth=1;size=5;indent=5;fillStyle=solid;fontColor=#e3f4ff;fillColor=#f06363;gradientColor=#fd0606;gradientDirection=east;top=1;right=1;topLeftStyle=rounded;topRightStyle=rounded;bottomRightStyle=rounded;bottomLeftStyle=rounded;absoluteCornerSize=1;strokeColor=none;points=[[0,0.5,0,0,0],[0.5,0,0,0,0],[0.5,1,0,0,0],[1,0.5,0,0,0]];" parent="1" vertex="1">
          <mxGeometry x="1000" y="320" width="120" height="200" as="geometry" />
        </mxCell>
        <mxCell id="A__g3K5XJHRTMdtyT-pL-16" value="&lt;h1&gt;&lt;font face=&quot;Roboto&quot;&gt;&lt;b&gt;My vehicles&lt;/b&gt;&lt;/font&gt;&lt;/h1&gt;" style="text;html=1;strokeColor=none;fillColor=none;align=center;verticalAlign=middle;whiteSpace=wrap;rounded=0;fontColor=#F9DBDB;" parent="1" vertex="1">
          <mxGeometry x="1010" y="400" width="100" height="40" as="geometry" />
        </mxCell>
        <mxCell id="WjL0k8UDnwhre0x2vG_2-11" style="edgeStyle=orthogonalEdgeStyle;rounded=1;orthogonalLoop=1;jettySize=auto;html=1;exitX=1;exitY=0.5;exitDx=0;exitDy=0;exitPerimeter=0;entryX=0;entryY=0.5;entryDx=0;entryDy=0;entryPerimeter=0;" parent="1" source="A__g3K5XJHRTMdtyT-pL-17" target="sNI8qB8jOJaMZQTXjaB0-4" edge="1">
          <mxGeometry relative="1" as="geometry" />
        </mxCell>
        <mxCell id="WjL0k8UDnwhre0x2vG_2-12" style="edgeStyle=orthogonalEdgeStyle;rounded=1;orthogonalLoop=1;jettySize=auto;html=1;exitX=1;exitY=0.5;exitDx=0;exitDy=0;exitPerimeter=0;entryX=0;entryY=0.5;entryDx=0;entryDy=0;entryPerimeter=0;" parent="1" source="A__g3K5XJHRTMdtyT-pL-17" target="WjL0k8UDnwhre0x2vG_2-1" edge="1">
          <mxGeometry relative="1" as="geometry" />
        </mxCell>
        <mxCell id="WjL0k8UDnwhre0x2vG_2-13" style="edgeStyle=orthogonalEdgeStyle;rounded=1;orthogonalLoop=1;jettySize=auto;html=1;exitX=1;exitY=0.5;exitDx=0;exitDy=0;exitPerimeter=0;entryX=0;entryY=0.5;entryDx=0;entryDy=0;entryPerimeter=0;" parent="1" source="A__g3K5XJHRTMdtyT-pL-17" target="WjL0k8UDnwhre0x2vG_2-5" edge="1">
          <mxGeometry relative="1" as="geometry" />
        </mxCell>
        <mxCell id="WjL0k8UDnwhre0x2vG_2-14" style="edgeStyle=orthogonalEdgeStyle;rounded=1;orthogonalLoop=1;jettySize=auto;html=1;exitX=1;exitY=0.5;exitDx=0;exitDy=0;exitPerimeter=0;entryX=0;entryY=0.5;entryDx=0;entryDy=0;entryPerimeter=0;" parent="1" source="A__g3K5XJHRTMdtyT-pL-17" target="WjL0k8UDnwhre0x2vG_2-7" edge="1">
          <mxGeometry relative="1" as="geometry" />
        </mxCell>
        <mxCell id="A__g3K5XJHRTMdtyT-pL-17" value="" style="verticalLabelPosition=bottom;verticalAlign=top;html=1;shape=mxgraph.basic.rect;fillColor2=none;strokeWidth=1;size=5;indent=5;fillStyle=solid;fontColor=#e3f4ff;fillColor=#f06363;gradientColor=#fd0606;gradientDirection=east;top=1;right=1;topLeftStyle=rounded;topRightStyle=rounded;bottomRightStyle=rounded;bottomLeftStyle=rounded;absoluteCornerSize=1;strokeColor=none;points=[[0,0.5,0,0,0],[0.5,0,0,0,0],[0.5,1,0,0,0],[1,0.5,0,0,0]];" parent="1" vertex="1">
          <mxGeometry x="1200" y="320" width="120" height="200" as="geometry" />
        </mxCell>
        <mxCell id="A__g3K5XJHRTMdtyT-pL-18" value="&lt;h1&gt;&lt;font face=&quot;Roboto&quot;&gt;&lt;b&gt;Settings&lt;/b&gt;&lt;/font&gt;&lt;/h1&gt;" style="text;html=1;strokeColor=none;fillColor=none;align=center;verticalAlign=middle;whiteSpace=wrap;rounded=0;fontColor=#F9DBDB;" parent="1" vertex="1">
          <mxGeometry x="1210" y="400" width="100" height="40" as="geometry" />
        </mxCell>
        <mxCell id="A__g3K5XJHRTMdtyT-pL-19" style="edgeStyle=orthogonalEdgeStyle;rounded=1;orthogonalLoop=1;jettySize=auto;html=1;shadow=0;startArrow=classic;startFill=1;fontFamily=Roboto;fontSource=https%3A%2F%2Ffonts.googleapis.com%2Fcss%3Ffamily%3DRoboto;entryX=0.5;entryY=1;entryDx=0;entryDy=0;entryPerimeter=0;exitX=0.5;exitY=0;exitDx=0;exitDy=0;exitPerimeter=0;" parent="1" source="A__g3K5XJHRTMdtyT-pL-15" target="A__g3K5XJHRTMdtyT-pL-20" edge="1">
          <mxGeometry relative="1" as="geometry">
            <mxPoint x="1070" y="330" as="sourcePoint" />
            <mxPoint x="1170" y="250" as="targetPoint" />
          </mxGeometry>
        </mxCell>
        <mxCell id="WjL0k8UDnwhre0x2vG_2-1" value="" style="verticalLabelPosition=bottom;verticalAlign=top;html=1;shape=mxgraph.basic.rect;fillColor2=none;strokeWidth=1;size=5;indent=4;fillStyle=solid;fontColor=#e3f4ff;fillColor=#4874EC;gradientColor=#1D4AAA;gradientDirection=east;top=1;right=1;topLeftStyle=rounded;topRightStyle=rounded;bottomRightStyle=rounded;absoluteCornerSize=1;fillOpacity=100;bottomLeftStyle=rounded;strokeColor=none;points=[[0,0.5,0,0,0],[0.5,0,0,0,0],[0.5,1,0,0,0],[1,0.5,0,0,0]];" parent="1" vertex="1">
          <mxGeometry x="1400" width="120" height="200" as="geometry" />
        </mxCell>
        <mxCell id="WjL0k8UDnwhre0x2vG_2-2" value="&lt;h1&gt;&lt;font face=&quot;Roboto&quot; color=&quot;#e3f4ff&quot;&gt;Language&lt;/font&gt;&lt;/h1&gt;" style="text;html=1;strokeColor=none;fillColor=none;align=center;verticalAlign=middle;whiteSpace=wrap;rounded=0;" parent="1" vertex="1">
          <mxGeometry x="1410" y="80" width="100" height="40" as="geometry" />
        </mxCell>
        <mxCell id="WjL0k8UDnwhre0x2vG_2-5" value="" style="verticalLabelPosition=bottom;verticalAlign=top;html=1;shape=mxgraph.basic.rect;fillColor2=none;strokeWidth=1;size=5;indent=4;fillStyle=solid;fontColor=#e3f4ff;fillColor=#4874EC;gradientColor=#1D4AAA;gradientDirection=east;top=1;right=1;topLeftStyle=rounded;topRightStyle=rounded;bottomRightStyle=rounded;absoluteCornerSize=1;fillOpacity=100;bottomLeftStyle=rounded;strokeColor=none;points=[[0,0.5,0,0,0],[0.5,0,0,0,0],[0.5,1,0,0,0],[1,0.5,0,0,0]];" parent="1" vertex="1">
          <mxGeometry x="1400" y="240" width="120" height="200" as="geometry" />
        </mxCell>
        <mxCell id="WjL0k8UDnwhre0x2vG_2-6" value="&lt;h1&gt;&lt;font face=&quot;Roboto&quot; color=&quot;#e3f4ff&quot;&gt;Personal info&lt;/font&gt;&lt;/h1&gt;" style="text;html=1;strokeColor=none;fillColor=none;align=center;verticalAlign=middle;whiteSpace=wrap;rounded=0;" parent="1" vertex="1">
          <mxGeometry x="1410" y="320" width="100" height="40" as="geometry" />
        </mxCell>
        <mxCell id="WjL0k8UDnwhre0x2vG_2-7" value="" style="verticalLabelPosition=bottom;verticalAlign=top;html=1;shape=mxgraph.basic.rect;fillColor2=none;strokeWidth=1;size=5;indent=4;fillStyle=solid;fontColor=#e3f4ff;fillColor=#4874EC;gradientColor=#1D4AAA;gradientDirection=east;top=1;right=1;topLeftStyle=rounded;topRightStyle=rounded;bottomRightStyle=rounded;absoluteCornerSize=1;fillOpacity=100;bottomLeftStyle=rounded;strokeColor=none;points=[[0,0.5,0,0,0],[0.5,0,0,0,0],[0.5,1,0,0,0],[1,0.5,0,0,0]];" parent="1" vertex="1">
          <mxGeometry x="1400" y="480" width="120" height="200" as="geometry" />
        </mxCell>
        <mxCell id="WjL0k8UDnwhre0x2vG_2-8" value="&lt;h1&gt;&lt;font face=&quot;Roboto&quot; color=&quot;#e3f4ff&quot;&gt;Journey history&lt;/font&gt;&lt;/h1&gt;" style="text;html=1;strokeColor=none;fillColor=none;align=center;verticalAlign=middle;whiteSpace=wrap;rounded=0;" parent="1" vertex="1">
          <mxGeometry x="1410" y="560" width="100" height="40" as="geometry" />
        </mxCell>
      </root>
    </mxGraphModel>
  </diagram>
  <diagram id="UUfNDL-aE0hDplBVRchl" name="Fragments">
    <mxGraphModel dx="1434" dy="839" grid="1" gridSize="10" guides="1" tooltips="1" connect="1" arrows="1" fold="1" page="1" pageScale="1" pageWidth="850" pageHeight="1100" math="0" shadow="0">
      <root>
        <mxCell id="0" />
        <mxCell id="1" parent="0" />
        <mxCell id="8SEIrV3IjzXHZ_Sk1Jga-11" value="" style="verticalLabelPosition=bottom;verticalAlign=top;html=1;shape=mxgraph.basic.rect;fillColor2=none;strokeWidth=1;size=5;indent=4;fillStyle=solid;fontColor=#e3f4ff;fillColor=#E6E6E6;gradientColor=#F2F2F2;gradientDirection=east;top=1;right=1;topLeftStyle=rounded;topRightStyle=rounded;bottomRightStyle=rounded;absoluteCornerSize=1;fillOpacity=100;bottomLeftStyle=rounded;strokeColor=none;" parent="1" vertex="1">
          <mxGeometry x="540" y="630" width="210" height="130" as="geometry" />
        </mxCell>
        <mxCell id="SAvEHlsmU1mmIAUYcibr-1" value="" style="verticalLabelPosition=bottom;verticalAlign=top;html=1;shape=mxgraph.basic.rect;fillColor2=none;strokeWidth=1;size=5;indent=5;fillStyle=solid;fontColor=#e3f4ff;fillColor=#f06363;gradientColor=#fd0606;gradientDirection=east;top=1;right=1;topLeftStyle=rounded;topRightStyle=rounded;bottomRightStyle=rounded;bottomLeftStyle=rounded;absoluteCornerSize=1;strokeColor=none;points=[[0,0.5,0,0,0],[0.5,0,0,0,0],[0.5,1,0,0,0],[1,0.5,0,0,0]];" parent="1" vertex="1">
          <mxGeometry x="190" y="150" width="140" height="260" as="geometry" />
        </mxCell>
        <mxCell id="SAvEHlsmU1mmIAUYcibr-2" value="&lt;h4&gt;&lt;font face=&quot;Roboto&quot;&gt;&lt;b&gt;Main Activity&lt;/b&gt;&lt;/font&gt;&lt;/h4&gt;" style="text;html=1;strokeColor=none;fillColor=none;align=center;verticalAlign=middle;whiteSpace=wrap;rounded=0;fontColor=#F9DBDB;" parent="1" vertex="1">
          <mxGeometry x="210" y="150" width="100" height="40" as="geometry" />
        </mxCell>
        <mxCell id="wQAY_mu580-A-TEZFDq1-1" value="" style="verticalLabelPosition=bottom;verticalAlign=top;html=1;shape=mxgraph.basic.rect;fillColor2=none;strokeWidth=1;size=5;indent=4;fillStyle=solid;fontColor=#e3f4ff;fillColor=#98DCF4;gradientColor=#44BDFF;gradientDirection=east;top=1;right=1;topLeftStyle=rounded;topRightStyle=rounded;bottomRightStyle=rounded;absoluteCornerSize=1;fillOpacity=100;bottomLeftStyle=rounded;strokeColor=none;points=[[0,0.5,0,0,0],[0.5,0,0,0,0],[0.5,1,0,0,0],[1,0.5,0,0,0]];fontFamily=Roboto;fontSource=https%3A%2F%2Ffonts.googleapis.com%2Fcss%3Ffamily%3DRoboto;" parent="1" vertex="1">
          <mxGeometry x="200" y="200" width="120" height="200" as="geometry" />
        </mxCell>
        <mxCell id="wQAY_mu580-A-TEZFDq1-2" value="&lt;h3 style=&quot;&quot;&gt;&lt;font color=&quot;#063d76&quot;&gt;Fragment&lt;/font&gt;&lt;/h3&gt;" style="text;html=1;strokeColor=none;fillColor=none;align=center;verticalAlign=middle;whiteSpace=wrap;rounded=0;fontFamily=Roboto;fontSource=https%3A%2F%2Ffonts.googleapis.com%2Fcss%3Ffamily%3DRoboto;" parent="1" vertex="1">
          <mxGeometry x="210" y="280" width="100" height="40" as="geometry" />
        </mxCell>
        <mxCell id="HR__ccaVtxQLa56vEhKG-1" value="" style="verticalLabelPosition=bottom;verticalAlign=top;html=1;shape=mxgraph.basic.rect;fillColor2=none;strokeWidth=1;size=5;indent=5;fillStyle=solid;fontColor=#e3f4ff;fillColor=#f06363;gradientColor=#fd0606;gradientDirection=east;top=1;right=1;topLeftStyle=rounded;topRightStyle=rounded;bottomRightStyle=rounded;bottomLeftStyle=rounded;absoluteCornerSize=1;strokeColor=none;points=[[0,0.5,0,0,0],[0.5,0,0,0,0],[0.5,1,0,0,0],[1,0.5,0,0,0]];" parent="1" vertex="1">
          <mxGeometry x="530" y="150" width="140" height="260" as="geometry" />
        </mxCell>
        <mxCell id="HR__ccaVtxQLa56vEhKG-2" value="&lt;h4&gt;&lt;font face=&quot;Roboto&quot;&gt;&lt;b&gt;Slider Activity&lt;/b&gt;&lt;/font&gt;&lt;/h4&gt;" style="text;html=1;strokeColor=none;fillColor=none;align=center;verticalAlign=middle;whiteSpace=wrap;rounded=0;fontColor=#F9DBDB;" parent="1" vertex="1">
          <mxGeometry x="550" y="150" width="100" height="40" as="geometry" />
        </mxCell>
        <mxCell id="HR__ccaVtxQLa56vEhKG-7" value="" style="verticalLabelPosition=bottom;verticalAlign=top;html=1;shape=mxgraph.basic.rect;fillColor2=none;strokeWidth=1;size=5;indent=4;fillStyle=solid;fontColor=#e3f4ff;fillColor=#98DCF4;gradientColor=#44BDFF;gradientDirection=east;top=1;right=1;topLeftStyle=rounded;topRightStyle=rounded;bottomRightStyle=rounded;absoluteCornerSize=1;fillOpacity=100;bottomLeftStyle=rounded;strokeColor=none;points=[[0,0.5,0,0,0],[0.5,0,0,0,0],[0.5,1,0,0,0],[1,0.5,0,0,0]];fontFamily=Roboto;fontSource=https%3A%2F%2Ffonts.googleapis.com%2Fcss%3Ffamily%3DRoboto;" parent="1" vertex="1">
          <mxGeometry x="30" y="430" width="140" height="260" as="geometry" />
        </mxCell>
        <mxCell id="HR__ccaVtxQLa56vEhKG-8" value="&lt;h4 style=&quot;&quot;&gt;&lt;font color=&quot;#063d76&quot;&gt;Fragment Nav&lt;/font&gt;&lt;/h4&gt;" style="text;html=1;strokeColor=none;fillColor=none;align=center;verticalAlign=middle;whiteSpace=wrap;rounded=0;fontFamily=Roboto;fontSource=https%3A%2F%2Ffonts.googleapis.com%2Fcss%3Ffamily%3DRoboto;" parent="1" vertex="1">
          <mxGeometry x="50" y="430" width="100" height="40" as="geometry" />
        </mxCell>
        <mxCell id="uOuWUsbmLYQUgxrhKUSd-15" style="edgeStyle=orthogonalEdgeStyle;rounded=1;orthogonalLoop=1;jettySize=auto;html=1;entryX=0.5;entryY=1;entryDx=0;entryDy=0;entryPerimeter=0;" parent="1" source="HR__ccaVtxQLa56vEhKG-9" target="wQAY_mu580-A-TEZFDq1-1" edge="1">
          <mxGeometry relative="1" as="geometry" />
        </mxCell>
        <mxCell id="HR__ccaVtxQLa56vEhKG-9" value="" style="verticalLabelPosition=bottom;verticalAlign=top;html=1;shape=mxgraph.basic.rect;fillColor2=none;strokeWidth=1;size=5;indent=4;fillStyle=solid;fontColor=#e3f4ff;fillColor=#98DCF4;gradientColor=#44BDFF;gradientDirection=east;top=1;right=1;topLeftStyle=rounded;topRightStyle=rounded;bottomRightStyle=rounded;absoluteCornerSize=1;fillOpacity=100;bottomLeftStyle=rounded;strokeColor=none;points=[[0,0.5,0,0,0],[0.5,0,0,0,0],[0.5,1,0,0,0],[1,0.5,0,0,0]];fontFamily=Roboto;fontSource=https%3A%2F%2Ffonts.googleapis.com%2Fcss%3Ffamily%3DRoboto;" parent="1" vertex="1">
          <mxGeometry x="350" y="430" width="140" height="260" as="geometry" />
        </mxCell>
        <mxCell id="HR__ccaVtxQLa56vEhKG-10" value="&lt;h4 style=&quot;&quot;&gt;&lt;font color=&quot;#063d76&quot;&gt;Fragment Login&lt;/font&gt;&lt;/h4&gt;" style="text;html=1;strokeColor=none;fillColor=none;align=center;verticalAlign=middle;whiteSpace=wrap;rounded=0;fontFamily=Roboto;fontSource=https%3A%2F%2Ffonts.googleapis.com%2Fcss%3Ffamily%3DRoboto;" parent="1" vertex="1">
          <mxGeometry x="370" y="430" width="100" height="40" as="geometry" />
        </mxCell>
        <mxCell id="Q6utmxZwQF--nr1xlQYV-1" value="" style="verticalLabelPosition=bottom;verticalAlign=top;html=1;shape=mxgraph.basic.rect;fillColor2=none;strokeWidth=1;size=5;indent=4;fillStyle=solid;fontColor=#e3f4ff;fillColor=#4874EC;gradientColor=#1D4AAA;gradientDirection=east;top=1;right=1;topLeftStyle=rounded;topRightStyle=rounded;bottomRightStyle=rounded;absoluteCornerSize=1;fillOpacity=100;bottomLeftStyle=rounded;strokeColor=none;points=[[0,0.5,0,0,0],[0.5,0,0,0,0],[0.5,1,0,0,0],[1,0.5,0,0,0]];" parent="1" vertex="1">
          <mxGeometry x="540" y="200" width="120" height="200" as="geometry" />
        </mxCell>
        <mxCell id="Q6utmxZwQF--nr1xlQYV-2" value="&lt;h3&gt;&lt;font face=&quot;Roboto&quot; color=&quot;#e3f4ff&quot;&gt;WebView&lt;/font&gt;&lt;/h3&gt;" style="text;html=1;strokeColor=none;fillColor=none;align=center;verticalAlign=middle;whiteSpace=wrap;rounded=0;" parent="1" vertex="1">
          <mxGeometry x="550" y="280" width="100" height="40" as="geometry" />
        </mxCell>
        <mxCell id="Q6utmxZwQF--nr1xlQYV-3" value="" style="verticalLabelPosition=bottom;verticalAlign=top;html=1;shape=mxgraph.basic.rect;fillColor2=none;strokeWidth=1;size=5;indent=4;fillStyle=solid;fontColor=#e3f4ff;fillColor=#4874EC;gradientColor=#1D4AAA;gradientDirection=east;top=1;right=1;topLeftStyle=rounded;topRightStyle=rounded;bottomRightStyle=rounded;absoluteCornerSize=1;fillOpacity=100;bottomLeftStyle=rounded;strokeColor=none;points=[[0,0.5,0,0,0],[0.5,0,0,0,0],[0.5,1,0,0,0],[1,0.5,0,0,0]];" parent="1" vertex="1">
          <mxGeometry x="360" y="480" width="120" height="200" as="geometry" />
        </mxCell>
        <mxCell id="Q6utmxZwQF--nr1xlQYV-4" value="&lt;h3&gt;&lt;font face=&quot;Roboto&quot; color=&quot;#e3f4ff&quot;&gt;WebView&lt;/font&gt;&lt;/h3&gt;" style="text;html=1;strokeColor=none;fillColor=none;align=center;verticalAlign=middle;whiteSpace=wrap;rounded=0;" parent="1" vertex="1">
          <mxGeometry x="370" y="560" width="100" height="40" as="geometry" />
        </mxCell>
        <mxCell id="Q6utmxZwQF--nr1xlQYV-5" value="" style="verticalLabelPosition=bottom;verticalAlign=top;html=1;shape=mxgraph.basic.rect;fillColor2=none;strokeWidth=1;size=5;indent=4;fillStyle=solid;fontColor=#e3f4ff;fillColor=#4874EC;gradientColor=#1D4AAA;gradientDirection=east;top=1;right=1;topLeftStyle=rounded;topRightStyle=rounded;bottomRightStyle=rounded;absoluteCornerSize=1;fillOpacity=100;bottomLeftStyle=rounded;strokeColor=none;points=[[0,0.5,0,0,0],[0.5,0,0,0,0],[0.5,1,0,0,0],[1,0.25,0,0,0],[1,0.5,0,0,0],[1,0.75,0,0,0]];" parent="1" vertex="1">
          <mxGeometry x="40" y="480" width="120" height="160" as="geometry" />
        </mxCell>
        <mxCell id="Q6utmxZwQF--nr1xlQYV-6" value="&lt;h3&gt;&lt;font face=&quot;Roboto&quot; color=&quot;#e3f4ff&quot;&gt;WebView Main&lt;/font&gt;&lt;/h3&gt;" style="text;html=1;strokeColor=none;fillColor=none;align=center;verticalAlign=middle;whiteSpace=wrap;rounded=0;" parent="1" vertex="1">
          <mxGeometry x="50" y="540" width="100" height="40" as="geometry" />
        </mxCell>
        <mxCell id="SvvvYrw5I_pEz4NEWGil-1" value="" style="verticalLabelPosition=bottom;verticalAlign=top;html=1;shape=mxgraph.basic.rect;fillColor2=none;strokeWidth=1;size=5;indent=4;fillStyle=solid;fillColor=#ffea61;gradientDirection=east;top=1;right=1;topLeftStyle=rounded;topRightStyle=rounded;bottomRightStyle=rounded;absoluteCornerSize=1;strokeColor=none;gradientColor=#FFD400;bottomLeftStyle=rounded;points=[[0,0.5,0,0,0],[0.5,0,0,0,0],[0.5,1,0,0,0],[1,0.5,0,0,0]];" parent="1" vertex="1">
          <mxGeometry x="40" y="640" width="120" height="40" as="geometry" />
        </mxCell>
        <mxCell id="h5lubU1B90DFwyww6t7X-1" value="&lt;h3&gt;&lt;font face=&quot;Roboto&quot;&gt;&lt;b&gt;WebView Navigation&lt;/b&gt;&lt;/font&gt;&lt;/h3&gt;" style="text;html=1;strokeColor=none;fillColor=none;align=center;verticalAlign=middle;whiteSpace=wrap;rounded=0;fontColor=#786400;" parent="1" vertex="1">
          <mxGeometry x="50" y="640" width="100" height="40" as="geometry" />
        </mxCell>
        <mxCell id="uOuWUsbmLYQUgxrhKUSd-11" style="edgeStyle=orthogonalEdgeStyle;rounded=1;orthogonalLoop=1;jettySize=auto;html=1;endArrow=block;endFill=1;exitX=0.5;exitY=0;exitDx=0;exitDy=0;" parent="1" source="uOuWUsbmLYQUgxrhKUSd-2" edge="1">
          <mxGeometry relative="1" as="geometry">
            <mxPoint x="160" y="602" as="targetPoint" />
            <Array as="points">
              <mxPoint x="260" y="602" />
            </Array>
          </mxGeometry>
        </mxCell>
        <mxCell id="uOuWUsbmLYQUgxrhKUSd-1" value="" style="verticalLabelPosition=bottom;verticalAlign=top;html=1;shape=mxgraph.basic.rect;fillColor2=none;strokeWidth=1;size=5;indent=4;fillStyle=solid;fontColor=#e3f4ff;fillColor=#81FBB8;gradientColor=#28CF6F;gradientDirection=east;top=1;right=1;topLeftStyle=rounded;topRightStyle=rounded;bottomRightStyle=rounded;absoluteCornerSize=1;fillOpacity=100;bottomLeftStyle=rounded;strokeColor=none;points=[[0,0.5,0,0,0],[0.5,0.03,0,0,0],[0.5,1,0,0,0],[1,0.5,0,0,0]];" parent="1" vertex="1">
          <mxGeometry x="200" y="680" width="120" height="80" as="geometry" />
        </mxCell>
        <mxCell id="uOuWUsbmLYQUgxrhKUSd-2" value="&lt;h4 style=&quot;font-size: 13px;&quot;&gt;&lt;font data-font-src=&quot;https://fonts.googleapis.com/css?family=Roboto&quot; style=&quot;font-size: 13px;&quot; face=&quot;Roboto&quot;&gt;&lt;b style=&quot;&quot;&gt;home.html&lt;br&gt;&lt;/b&gt;&lt;/font&gt;&lt;font data-font-src=&quot;https://fonts.googleapis.com/css?family=Roboto&quot; style=&quot;font-size: 13px;&quot; face=&quot;Roboto&quot;&gt;&lt;b&gt;drive.html&lt;br&gt;&lt;/b&gt;&lt;/font&gt;&lt;font data-font-src=&quot;https://fonts.googleapis.com/css?family=Roboto&quot; style=&quot;font-size: 13px;&quot; face=&quot;Roboto&quot;&gt;&lt;b&gt;vehicles.html&lt;br&gt;&lt;/b&gt;&lt;/font&gt;&lt;font data-font-src=&quot;https://fonts.googleapis.com/css?family=Roboto&quot; style=&quot;font-size: 13px;&quot; face=&quot;Roboto&quot;&gt;&lt;b style=&quot;&quot;&gt;settings.html&lt;/b&gt;&lt;/font&gt;&lt;/h4&gt;" style="text;html=1;strokeColor=none;fillColor=none;align=center;verticalAlign=middle;whiteSpace=wrap;rounded=0;fontColor=#146336;" parent="1" vertex="1">
          <mxGeometry x="210" y="680" width="100" height="80" as="geometry" />
        </mxCell>
        <mxCell id="uOuWUsbmLYQUgxrhKUSd-3" value="" style="verticalLabelPosition=bottom;verticalAlign=top;html=1;shape=mxgraph.basic.rect;fillColor2=none;strokeWidth=1;size=5;indent=4;fillStyle=solid;fontColor=#e3f4ff;fillColor=#81FBB8;gradientColor=#28CF6F;gradientDirection=east;top=1;right=1;topLeftStyle=rounded;topRightStyle=rounded;bottomRightStyle=rounded;absoluteCornerSize=1;fillOpacity=100;bottomLeftStyle=rounded;strokeColor=none;points=[[0,0.5,0,0,0],[0.5,0.03,0,0,0],[0.5,1,0,0,0],[1,0.5,0,0,0]];" parent="1" vertex="1">
          <mxGeometry x="40" y="720" width="120" height="40" as="geometry" />
        </mxCell>
        <mxCell id="uOuWUsbmLYQUgxrhKUSd-10" style="edgeStyle=orthogonalEdgeStyle;rounded=0;orthogonalLoop=1;jettySize=auto;html=1;entryX=0.5;entryY=1;entryDx=0;entryDy=0;endArrow=block;endFill=1;" parent="1" source="uOuWUsbmLYQUgxrhKUSd-4" target="h5lubU1B90DFwyww6t7X-1" edge="1">
          <mxGeometry relative="1" as="geometry" />
        </mxCell>
        <mxCell id="uOuWUsbmLYQUgxrhKUSd-4" value="&lt;h4 style=&quot;font-size: 13px;&quot;&gt;&lt;font face=&quot;Roboto&quot;&gt;nav.html&lt;/font&gt;&lt;/h4&gt;" style="text;html=1;strokeColor=none;fillColor=none;align=center;verticalAlign=middle;whiteSpace=wrap;rounded=0;fontColor=#146336;" parent="1" vertex="1">
          <mxGeometry x="50" y="720" width="100" height="40" as="geometry" />
        </mxCell>
        <mxCell id="uOuWUsbmLYQUgxrhKUSd-5" value="" style="verticalLabelPosition=bottom;verticalAlign=top;html=1;shape=mxgraph.basic.rect;fillColor2=none;strokeWidth=1;size=5;indent=4;fillStyle=solid;fontColor=#e3f4ff;fillColor=#81FBB8;gradientColor=#28CF6F;gradientDirection=east;top=1;right=1;topLeftStyle=rounded;topRightStyle=rounded;bottomRightStyle=rounded;absoluteCornerSize=1;fillOpacity=100;bottomLeftStyle=rounded;strokeColor=none;points=[[0,0.5,0,0,0],[0.5,0.03,0,0,0],[0.5,1,0,0,0],[1,0.5,0,0,0]];" parent="1" vertex="1">
          <mxGeometry x="360" y="720" width="120" height="40" as="geometry" />
        </mxCell>
        <mxCell id="uOuWUsbmLYQUgxrhKUSd-9" style="edgeStyle=orthogonalEdgeStyle;rounded=0;orthogonalLoop=1;jettySize=auto;html=1;entryX=0.5;entryY=1;entryDx=0;entryDy=0;entryPerimeter=0;endArrow=block;endFill=1;" parent="1" source="uOuWUsbmLYQUgxrhKUSd-6" target="Q6utmxZwQF--nr1xlQYV-3" edge="1">
          <mxGeometry relative="1" as="geometry" />
        </mxCell>
        <mxCell id="uOuWUsbmLYQUgxrhKUSd-6" value="&lt;h4 style=&quot;font-size: 13px;&quot;&gt;&lt;font face=&quot;Roboto&quot;&gt;login.html&lt;/font&gt;&lt;/h4&gt;" style="text;html=1;strokeColor=none;fillColor=none;align=center;verticalAlign=middle;whiteSpace=wrap;rounded=0;fontColor=#146336;" parent="1" vertex="1">
          <mxGeometry x="370" y="720" width="100" height="40" as="geometry" />
        </mxCell>
        <mxCell id="uOuWUsbmLYQUgxrhKUSd-7" value="" style="verticalLabelPosition=bottom;verticalAlign=top;html=1;shape=mxgraph.basic.rect;fillColor2=none;strokeWidth=1;size=5;indent=4;fillStyle=solid;fontColor=#e3f4ff;fillColor=#81FBB8;gradientColor=#28CF6F;gradientDirection=east;top=1;right=1;topLeftStyle=rounded;topRightStyle=rounded;bottomRightStyle=rounded;absoluteCornerSize=1;fillOpacity=100;bottomLeftStyle=rounded;strokeColor=none;points=[[0,0.5,0,0,0],[0.5,0.01,0,0,0],[0.5,1,0,0,0],[1,0.5,0,0,0]];" parent="1" vertex="1">
          <mxGeometry x="520" y="440" width="160" height="160" as="geometry" />
        </mxCell>
        <mxCell id="uOuWUsbmLYQUgxrhKUSd-13" style="edgeStyle=orthogonalEdgeStyle;rounded=0;orthogonalLoop=1;jettySize=auto;html=1;entryX=0.5;entryY=1;entryDx=0;entryDy=0;entryPerimeter=0;exitX=0.5;exitY=0.01;exitDx=0;exitDy=0;exitPerimeter=0;" parent="1" source="uOuWUsbmLYQUgxrhKUSd-7" target="Q6utmxZwQF--nr1xlQYV-1" edge="1">
          <mxGeometry relative="1" as="geometry">
            <mxPoint x="610" y="430" as="sourcePoint" />
          </mxGeometry>
        </mxCell>
        <mxCell id="uOuWUsbmLYQUgxrhKUSd-8" value="&lt;h3 style=&quot;&quot;&gt;&lt;font data-font-src=&quot;https://fonts.googleapis.com/css?family=Roboto&quot; style=&quot;font-size: 12px;&quot; face=&quot;Roboto&quot;&gt;&lt;b style=&quot;&quot;&gt;drive_book.html&lt;br&gt;&lt;/b&gt;&lt;/font&gt;&lt;font data-font-src=&quot;https://fonts.googleapis.com/css?family=Roboto&quot; style=&quot;font-size: 12px;&quot; face=&quot;Roboto&quot;&gt;&lt;b&gt;settings_history.html&lt;br&gt;&lt;/b&gt;&lt;/font&gt;&lt;font data-font-src=&quot;https://fonts.googleapis.com/css?family=Roboto&quot; style=&quot;font-size: 12px;&quot; face=&quot;Roboto&quot;&gt;settings_languages&lt;b&gt;.html&lt;br&gt;&lt;/b&gt;&lt;/font&gt;&lt;font data-font-src=&quot;https://fonts.googleapis.com/css?family=Roboto&quot; style=&quot;font-size: 12px;&quot; face=&quot;Roboto&quot;&gt;settings_personal_info&lt;b style=&quot;&quot;&gt;.html&lt;br&gt;&lt;/b&gt;&lt;/font&gt;&lt;font data-font-src=&quot;https://fonts.googleapis.com/css?family=Roboto&quot; style=&quot;font-size: 12px;&quot; face=&quot;Roboto&quot;&gt;&lt;b style=&quot;&quot;&gt;settings_profile.html&lt;br&gt;&lt;/b&gt;&lt;/font&gt;&lt;font data-font-src=&quot;https://fonts.googleapis.com/css?family=Roboto&quot; style=&quot;font-size: 12px;&quot; face=&quot;Roboto&quot;&gt;&lt;b style=&quot;&quot;&gt;vehicles_add_menu.html&lt;br&gt;&lt;/b&gt;&lt;/font&gt;&lt;font data-font-src=&quot;https://fonts.googleapis.com/css?family=Roboto&quot; style=&quot;font-size: 12px;&quot; face=&quot;Roboto&quot;&gt;&lt;b style=&quot;&quot;&gt;vehicles_add.html&lt;br&gt;&lt;/b&gt;&lt;/font&gt;&lt;font data-font-src=&quot;https://fonts.googleapis.com/css?family=Roboto&quot; style=&quot;font-size: 12px;&quot; face=&quot;Roboto&quot;&gt;&lt;b style=&quot;&quot;&gt;vehicles_ask.html&lt;br&gt;&lt;/b&gt;&lt;/font&gt;&lt;font data-font-src=&quot;https://fonts.googleapis.com/css?family=Roboto&quot; style=&quot;font-size: 12px;&quot; face=&quot;Roboto&quot;&gt;&lt;b style=&quot;&quot;&gt;vehicles_edit.html&lt;/b&gt;&lt;/font&gt;&lt;/h3&gt;" style="text;html=1;strokeColor=none;fillColor=none;align=center;verticalAlign=middle;whiteSpace=wrap;rounded=0;fontColor=#146336;" parent="1" vertex="1">
          <mxGeometry x="520" y="445" width="160" height="150" as="geometry" />
        </mxCell>
        <mxCell id="uOuWUsbmLYQUgxrhKUSd-14" style="edgeStyle=orthogonalEdgeStyle;rounded=1;orthogonalLoop=1;jettySize=auto;html=1;entryX=0.5;entryY=1;entryDx=0;entryDy=0;entryPerimeter=0;exitX=1;exitY=0.5;exitDx=0;exitDy=0;exitPerimeter=0;" parent="1" source="HR__ccaVtxQLa56vEhKG-7" target="wQAY_mu580-A-TEZFDq1-1" edge="1">
          <mxGeometry relative="1" as="geometry">
            <mxPoint x="220" y="520" as="sourcePoint" />
          </mxGeometry>
        </mxCell>
        <mxCell id="uOuWUsbmLYQUgxrhKUSd-16" value="" style="verticalLabelPosition=bottom;verticalAlign=top;html=1;shape=mxgraph.basic.rect;fillColor2=none;strokeWidth=1;size=5;indent=5;fillStyle=solid;fontColor=#e3f4ff;fillColor=#f06363;gradientColor=#fd0606;gradientDirection=east;top=1;right=1;topLeftStyle=rounded;topRightStyle=rounded;bottomRightStyle=rounded;bottomLeftStyle=rounded;absoluteCornerSize=1;strokeColor=none;points=[[0,0.5,0,0,0],[0.5,0,0,0,0],[0.5,1,0,0,0],[1,0.5,0,0,0]];" parent="1" vertex="1">
          <mxGeometry x="550" y="640" width="40" height="20" as="geometry" />
        </mxCell>
        <mxCell id="8SEIrV3IjzXHZ_Sk1Jga-1" value="&lt;h3&gt;&lt;font data-font-src=&quot;https://fonts.googleapis.com/css?family=Fuzzy+Bubbles&quot;&gt;Activity&lt;/font&gt;&lt;/h3&gt;" style="text;html=1;strokeColor=none;fillColor=none;align=left;verticalAlign=middle;whiteSpace=wrap;rounded=0;shadow=0;glass=0;fontFamily=Roboto;fontSource=https%3A%2F%2Ffonts.googleapis.com%2Fcss%3Ffamily%3DRoboto;" parent="1" vertex="1">
          <mxGeometry x="660" y="640" width="80" height="20" as="geometry" />
        </mxCell>
        <mxCell id="8SEIrV3IjzXHZ_Sk1Jga-2" value="" style="verticalLabelPosition=bottom;verticalAlign=top;html=1;shape=mxgraph.basic.rect;fillColor2=none;strokeWidth=1;size=5;indent=4;fillStyle=solid;fontColor=#e3f4ff;fillColor=#81FBB8;gradientColor=#28CF6F;gradientDirection=east;top=1;right=1;topLeftStyle=rounded;topRightStyle=rounded;bottomRightStyle=rounded;absoluteCornerSize=1;fillOpacity=100;bottomLeftStyle=rounded;strokeColor=none;points=[[0,0.5,0,0,0],[0.5,0.03,0,0,0],[0.5,1,0,0,0],[1,0.5,0,0,0]];" parent="1" vertex="1">
          <mxGeometry x="550" y="730" width="40" height="20" as="geometry" />
        </mxCell>
        <mxCell id="8SEIrV3IjzXHZ_Sk1Jga-3" value="" style="verticalLabelPosition=bottom;verticalAlign=top;html=1;shape=mxgraph.basic.rect;fillColor2=none;strokeWidth=1;size=5;indent=4;fillStyle=solid;fontColor=#e3f4ff;fillColor=#4874EC;gradientColor=#1D4AAA;gradientDirection=east;top=1;right=1;topLeftStyle=rounded;topRightStyle=rounded;bottomRightStyle=rounded;absoluteCornerSize=1;fillOpacity=100;bottomLeftStyle=rounded;strokeColor=none;points=[[0,0.5,0,0,0],[0.5,0,0,0,0],[0.5,1,0,0,0],[1,0.25,0,0,0],[1,0.5,0,0,0],[1,0.75,0,0,0]];" parent="1" vertex="1">
          <mxGeometry x="550" y="700" width="40" height="20" as="geometry" />
        </mxCell>
        <mxCell id="8SEIrV3IjzXHZ_Sk1Jga-4" value="" style="verticalLabelPosition=bottom;verticalAlign=top;html=1;shape=mxgraph.basic.rect;fillColor2=none;strokeWidth=1;size=5;indent=4;fillStyle=solid;fillColor=#ffea61;gradientDirection=east;top=1;right=1;topLeftStyle=rounded;topRightStyle=rounded;bottomRightStyle=rounded;absoluteCornerSize=1;strokeColor=none;gradientColor=#FFD400;bottomLeftStyle=rounded;points=[[0,0.5,0,0,0],[0.5,0,0,0,0],[0.5,1,0,0,0],[1,0.5,0,0,0]];" parent="1" vertex="1">
          <mxGeometry x="610" y="700" width="40" height="20" as="geometry" />
        </mxCell>
        <mxCell id="8SEIrV3IjzXHZ_Sk1Jga-6" value="&lt;h3&gt;&amp;amp;&lt;/h3&gt;" style="text;html=1;strokeColor=none;fillColor=none;align=center;verticalAlign=middle;whiteSpace=wrap;rounded=0;shadow=0;glass=0;fontFamily=Roboto;fontSource=https%3A%2F%2Ffonts.googleapis.com%2Fcss%3Ffamily%3DRoboto;" parent="1" vertex="1">
          <mxGeometry x="590" y="690" width="20" height="40" as="geometry" />
        </mxCell>
        <mxCell id="8SEIrV3IjzXHZ_Sk1Jga-7" value="" style="verticalLabelPosition=bottom;verticalAlign=top;html=1;shape=mxgraph.basic.rect;fillColor2=none;strokeWidth=1;size=5;indent=4;fillStyle=solid;fontColor=#e3f4ff;fillColor=#98DCF4;gradientColor=#44BDFF;gradientDirection=east;top=1;right=1;topLeftStyle=rounded;topRightStyle=rounded;bottomRightStyle=rounded;absoluteCornerSize=1;fillOpacity=100;bottomLeftStyle=rounded;strokeColor=none;points=[[0,0.5,0,0,0],[0.5,0,0,0,0],[0.5,1,0,0,0],[1,0.5,0,0,0]];fontFamily=Roboto;fontSource=https%3A%2F%2Ffonts.googleapis.com%2Fcss%3Ffamily%3DRoboto;" parent="1" vertex="1">
          <mxGeometry x="550" y="670" width="40" height="20" as="geometry" />
        </mxCell>
        <mxCell id="8SEIrV3IjzXHZ_Sk1Jga-8" value="&lt;h3&gt;&lt;font data-font-src=&quot;https://fonts.googleapis.com/css?family=Fuzzy+Bubbles&quot;&gt;Html Pages&lt;/font&gt;&lt;/h3&gt;" style="text;html=1;strokeColor=none;fillColor=none;align=left;verticalAlign=middle;whiteSpace=wrap;rounded=0;shadow=0;glass=0;fontFamily=Roboto;fontSource=https%3A%2F%2Ffonts.googleapis.com%2Fcss%3Ffamily%3DRoboto;" parent="1" vertex="1">
          <mxGeometry x="660" y="730" width="80" height="20" as="geometry" />
        </mxCell>
        <mxCell id="8SEIrV3IjzXHZ_Sk1Jga-9" value="&lt;h3&gt;&lt;font data-font-src=&quot;https://fonts.googleapis.com/css?family=Fuzzy+Bubbles&quot;&gt;Web View&lt;/font&gt;&lt;/h3&gt;" style="text;html=1;strokeColor=none;fillColor=none;align=left;verticalAlign=middle;whiteSpace=wrap;rounded=0;shadow=0;glass=0;fontFamily=Roboto;fontSource=https%3A%2F%2Ffonts.googleapis.com%2Fcss%3Ffamily%3DRoboto;" parent="1" vertex="1">
          <mxGeometry x="660" y="700" width="80" height="20" as="geometry" />
        </mxCell>
        <mxCell id="8SEIrV3IjzXHZ_Sk1Jga-10" value="&lt;h3&gt;&lt;font data-font-src=&quot;https://fonts.googleapis.com/css?family=Fuzzy+Bubbles&quot;&gt;Fragments&lt;/font&gt;&lt;/h3&gt;" style="text;html=1;strokeColor=none;fillColor=none;align=left;verticalAlign=middle;whiteSpace=wrap;rounded=0;shadow=0;glass=0;fontFamily=Roboto;fontSource=https%3A%2F%2Ffonts.googleapis.com%2Fcss%3Ffamily%3DRoboto;" parent="1" vertex="1">
          <mxGeometry x="660" y="670" width="80" height="20" as="geometry" />
        </mxCell>
      </root>
    </mxGraphModel>
  </diagram>
  <diagram id="Z1Qs3Qnb8SaZWwepLZCL" name="WebInterfaces">
    <mxGraphModel dx="584" dy="1939" grid="1" gridSize="10" guides="1" tooltips="1" connect="1" arrows="1" fold="1" page="1" pageScale="1" pageWidth="850" pageHeight="1100" math="0" shadow="0">
      <root>
        <mxCell id="0" />
        <mxCell id="1" parent="0" />
        <mxCell id="-BAkdPszw5Xz-JadCHTb-4" style="edgeStyle=orthogonalEdgeStyle;rounded=1;orthogonalLoop=1;jettySize=auto;html=1;entryX=0.5;entryY=1;entryDx=0;entryDy=0;entryPerimeter=0;" parent="1" source="fVRMBCSMswcw4e8oceU_-1" target="FSYbJ8hOxc3yF6wRaMpR-1" edge="1">
          <mxGeometry relative="1" as="geometry" />
        </mxCell>
        <mxCell id="fVRMBCSMswcw4e8oceU_-1" value="" style="verticalLabelPosition=bottom;verticalAlign=top;html=1;shape=mxgraph.basic.rect;fillColor2=none;strokeWidth=1;size=5;indent=4;fillStyle=solid;fontColor=#e3f4ff;fillColor=#98DCF4;gradientColor=#44BDFF;gradientDirection=east;top=1;right=1;topLeftStyle=rounded;topRightStyle=rounded;bottomRightStyle=rounded;absoluteCornerSize=1;fillOpacity=100;bottomLeftStyle=rounded;strokeColor=none;points=[[0,0.5,0,0,0],[0.5,0,0,0,0],[0.5,1,0,0,0],[1,0.5,0,0,0]];fontFamily=Roboto;fontSource=https%3A%2F%2Ffonts.googleapis.com%2Fcss%3Ffamily%3DRoboto;" parent="1" vertex="1">
          <mxGeometry x="880" y="-520" width="120" height="80" as="geometry" />
        </mxCell>
        <mxCell id="-BAkdPszw5Xz-JadCHTb-3" style="edgeStyle=orthogonalEdgeStyle;rounded=1;orthogonalLoop=1;jettySize=auto;html=1;entryX=0.5;entryY=1;entryDx=0;entryDy=0;entryPerimeter=0;" parent="1" source="fVRMBCSMswcw4e8oceU_-2" target="FSYbJ8hOxc3yF6wRaMpR-1" edge="1">
          <mxGeometry relative="1" as="geometry" />
        </mxCell>
        <mxCell id="fVRMBCSMswcw4e8oceU_-2" value="" style="verticalLabelPosition=bottom;verticalAlign=top;html=1;shape=mxgraph.basic.rect;fillColor2=none;strokeWidth=1;size=5;indent=4;fillStyle=solid;fontColor=#e3f4ff;fillColor=#98DCF4;gradientColor=#44BDFF;gradientDirection=east;top=1;right=1;topLeftStyle=rounded;topRightStyle=rounded;bottomRightStyle=rounded;absoluteCornerSize=1;fillOpacity=100;bottomLeftStyle=rounded;strokeColor=none;points=[[0,0.5,0,0,0],[0.5,0,0,0,0],[0.5,1,0,0,0],[1,0.5,0,0,0]];fontFamily=Roboto;fontSource=https%3A%2F%2Ffonts.googleapis.com%2Fcss%3Ffamily%3DRoboto;" parent="1" vertex="1">
          <mxGeometry x="1120" y="-520" width="120" height="80" as="geometry" />
        </mxCell>
        <mxCell id="fVRMBCSMswcw4e8oceU_-3" value="&lt;h3 style=&quot;&quot;&gt;&lt;font color=&quot;#063d76&quot;&gt;Fragment Login&lt;/font&gt;&lt;/h3&gt;" style="text;html=1;strokeColor=none;fillColor=none;align=center;verticalAlign=middle;whiteSpace=wrap;rounded=0;fontFamily=Roboto;fontSource=https%3A%2F%2Ffonts.googleapis.com%2Fcss%3Ffamily%3DRoboto;" parent="1" vertex="1">
          <mxGeometry x="890" y="-500" width="100" height="40" as="geometry" />
        </mxCell>
        <mxCell id="fVRMBCSMswcw4e8oceU_-4" value="&lt;h3 style=&quot;&quot;&gt;&lt;font color=&quot;#063d76&quot;&gt;Fragment Nav&lt;/font&gt;&lt;/h3&gt;" style="text;html=1;strokeColor=none;fillColor=none;align=center;verticalAlign=middle;whiteSpace=wrap;rounded=0;fontFamily=Roboto;fontSource=https%3A%2F%2Ffonts.googleapis.com%2Fcss%3Ffamily%3DRoboto;" parent="1" vertex="1">
          <mxGeometry x="1130" y="-500" width="100" height="40" as="geometry" />
        </mxCell>
        <mxCell id="-BAkdPszw5Xz-JadCHTb-5" style="edgeStyle=orthogonalEdgeStyle;rounded=0;orthogonalLoop=1;jettySize=auto;html=1;entryX=0.5;entryY=1;entryDx=0;entryDy=0;entryPerimeter=0;" parent="1" source="KOJo79VfAhbhqB2pttPC-1" target="fVRMBCSMswcw4e8oceU_-1" edge="1">
          <mxGeometry relative="1" as="geometry" />
        </mxCell>
        <mxCell id="KOJo79VfAhbhqB2pttPC-1" value="" style="verticalLabelPosition=bottom;verticalAlign=top;html=1;shape=mxgraph.basic.rect;fillColor2=none;strokeWidth=1;size=5;indent=4;fillStyle=solid;fontColor=#e3f4ff;fillColor=#4874EC;gradientColor=#1D4AAA;gradientDirection=east;top=1;right=1;topLeftStyle=rounded;topRightStyle=rounded;bottomRightStyle=rounded;absoluteCornerSize=1;fillOpacity=100;bottomLeftStyle=rounded;strokeColor=none;points=[[0,0.5,0,0,0],[0.5,0,0,0,0],[0.5,1,0,0,0],[1,0.5,0,0,0]];fontFamily=Roboto;fontSource=https%3A%2F%2Ffonts.googleapis.com%2Fcss%3Ffamily%3DRoboto;" parent="1" vertex="1">
          <mxGeometry x="880" y="-400" width="120" height="80" as="geometry" />
        </mxCell>
        <mxCell id="KOJo79VfAhbhqB2pttPC-2" value="&lt;h3&gt;&lt;font color=&quot;#e3f4ff&quot;&gt;WI Authentication&lt;/font&gt;&lt;/h3&gt;" style="text;html=1;strokeColor=none;fillColor=none;align=center;verticalAlign=middle;whiteSpace=wrap;rounded=0;fontFamily=Roboto;fontSource=https%3A%2F%2Ffonts.googleapis.com%2Fcss%3Ffamily%3DRoboto;" parent="1" vertex="1">
          <mxGeometry x="890" y="-380" width="100" height="40" as="geometry" />
        </mxCell>
        <mxCell id="y94cB5j32CKqM8ODX_yV-4" style="edgeStyle=orthogonalEdgeStyle;rounded=1;orthogonalLoop=1;jettySize=auto;html=1;entryX=0.5;entryY=1;entryDx=0;entryDy=0;entryPerimeter=0;" parent="1" source="KOJo79VfAhbhqB2pttPC-3" target="fVRMBCSMswcw4e8oceU_-2" edge="1">
          <mxGeometry relative="1" as="geometry" />
        </mxCell>
        <mxCell id="KOJo79VfAhbhqB2pttPC-3" value="" style="verticalLabelPosition=bottom;verticalAlign=top;html=1;shape=mxgraph.basic.rect;fillColor2=none;strokeWidth=1;size=5;indent=4;fillStyle=solid;fontColor=#e3f4ff;fillColor=#4874EC;gradientColor=#1D4AAA;gradientDirection=east;top=1;right=1;topLeftStyle=rounded;topRightStyle=rounded;bottomRightStyle=rounded;absoluteCornerSize=1;fillOpacity=100;bottomLeftStyle=rounded;strokeColor=none;points=[[0,0.5,0,0,0],[0.5,0,0,0,0],[0.5,1,0,0,0],[1,0.5,0,0,0]];fontFamily=Roboto;fontSource=https%3A%2F%2Ffonts.googleapis.com%2Fcss%3Ffamily%3DRoboto;" parent="1" vertex="1">
          <mxGeometry x="1040" y="-400" width="120" height="80" as="geometry" />
        </mxCell>
        <mxCell id="KOJo79VfAhbhqB2pttPC-4" value="&lt;h3&gt;&lt;font color=&quot;#e3f4ff&quot;&gt;WI Navigation&lt;/font&gt;&lt;/h3&gt;" style="text;html=1;strokeColor=none;fillColor=none;align=center;verticalAlign=middle;whiteSpace=wrap;rounded=0;fontFamily=Roboto;fontSource=https%3A%2F%2Ffonts.googleapis.com%2Fcss%3Ffamily%3DRoboto;" parent="1" vertex="1">
          <mxGeometry x="1050" y="-380" width="100" height="40" as="geometry" />
        </mxCell>
        <mxCell id="-BAkdPszw5Xz-JadCHTb-1" style="edgeStyle=orthogonalEdgeStyle;rounded=1;orthogonalLoop=1;jettySize=auto;html=1;entryX=0.5;entryY=1;entryDx=0;entryDy=0;entryPerimeter=0;" parent="1" source="KOJo79VfAhbhqB2pttPC-5" target="fVRMBCSMswcw4e8oceU_-2" edge="1">
          <mxGeometry relative="1" as="geometry" />
        </mxCell>
        <mxCell id="KOJo79VfAhbhqB2pttPC-5" value="" style="verticalLabelPosition=bottom;verticalAlign=top;html=1;shape=mxgraph.basic.rect;fillColor2=none;strokeWidth=1;size=5;indent=4;fillStyle=solid;fontColor=#e3f4ff;fillColor=#4874EC;gradientColor=#1D4AAA;gradientDirection=east;top=1;right=1;topLeftStyle=rounded;topRightStyle=rounded;bottomRightStyle=rounded;absoluteCornerSize=1;fillOpacity=100;bottomLeftStyle=rounded;strokeColor=none;points=[[0,0.5,0,0,0],[0.5,0,0,0,0],[0.5,1,0,0,0],[1,0.5,0,0,0]];fontFamily=Roboto;fontSource=https%3A%2F%2Ffonts.googleapis.com%2Fcss%3Ffamily%3DRoboto;" parent="1" vertex="1">
          <mxGeometry x="1200" y="-400" width="120" height="80" as="geometry" />
        </mxCell>
        <mxCell id="KOJo79VfAhbhqB2pttPC-6" value="&lt;h3&gt;&lt;font color=&quot;#e3f4ff&quot;&gt;WI Main Screen&lt;/font&gt;&lt;/h3&gt;" style="text;html=1;strokeColor=none;fillColor=none;align=center;verticalAlign=middle;whiteSpace=wrap;rounded=0;fontFamily=Roboto;fontSource=https%3A%2F%2Ffonts.googleapis.com%2Fcss%3Ffamily%3DRoboto;" parent="1" vertex="1">
          <mxGeometry x="1210" y="-380" width="100" height="40" as="geometry" />
        </mxCell>
        <mxCell id="-BAkdPszw5Xz-JadCHTb-2" style="edgeStyle=orthogonalEdgeStyle;rounded=0;orthogonalLoop=1;jettySize=auto;html=1;entryX=0.5;entryY=1;entryDx=0;entryDy=0;entryPerimeter=0;" parent="1" source="KOJo79VfAhbhqB2pttPC-9" edge="1">
          <mxGeometry relative="1" as="geometry">
            <mxPoint x="1420" y="-480" as="targetPoint" />
          </mxGeometry>
        </mxCell>
        <mxCell id="KOJo79VfAhbhqB2pttPC-9" value="" style="verticalLabelPosition=bottom;verticalAlign=top;html=1;shape=mxgraph.basic.rect;fillColor2=none;strokeWidth=1;size=5;indent=4;fillStyle=solid;fontColor=#e3f4ff;fillColor=#4874EC;gradientColor=#1D4AAA;gradientDirection=east;top=1;right=1;topLeftStyle=rounded;topRightStyle=rounded;bottomRightStyle=rounded;absoluteCornerSize=1;fillOpacity=100;bottomLeftStyle=rounded;strokeColor=none;points=[[0,0.5,0,0,0],[0.5,0,0,0,0],[0.5,1,0,0,0],[1,0.5,0,0,0]];fontFamily=Roboto;fontSource=https%3A%2F%2Ffonts.googleapis.com%2Fcss%3Ffamily%3DRoboto;" parent="1" vertex="1">
          <mxGeometry x="1360" y="-400" width="120" height="80" as="geometry" />
        </mxCell>
        <mxCell id="KOJo79VfAhbhqB2pttPC-10" value="&lt;h3&gt;&lt;font color=&quot;#e3f4ff&quot;&gt;WI Panels&lt;/font&gt;&lt;/h3&gt;" style="text;html=1;strokeColor=none;fillColor=none;align=center;verticalAlign=middle;whiteSpace=wrap;rounded=0;fontFamily=Roboto;fontSource=https%3A%2F%2Ffonts.googleapis.com%2Fcss%3Ffamily%3DRoboto;" parent="1" vertex="1">
          <mxGeometry x="1370" y="-380" width="100" height="40" as="geometry" />
        </mxCell>
        <mxCell id="FSYbJ8hOxc3yF6wRaMpR-1" value="" style="verticalLabelPosition=bottom;verticalAlign=top;html=1;shape=mxgraph.basic.rect;fillColor2=none;strokeWidth=1;size=5;indent=5;fillStyle=solid;fontColor=#e3f4ff;fillColor=#f06363;gradientColor=#fd0606;gradientDirection=east;top=1;right=1;topLeftStyle=rounded;topRightStyle=rounded;bottomRightStyle=rounded;bottomLeftStyle=rounded;absoluteCornerSize=1;strokeColor=none;points=[[0,0.5,0,0,0],[0.5,0,0,0,0],[0.5,1,0,0,0],[1,0.5,0,0,0]];" parent="1" vertex="1">
          <mxGeometry x="1000" y="-640" width="120" height="80" as="geometry" />
        </mxCell>
        <mxCell id="y94cB5j32CKqM8ODX_yV-1" value="&lt;h3&gt;&lt;font face=&quot;Roboto&quot;&gt;&lt;b&gt;Main Activity&lt;/b&gt;&lt;/font&gt;&lt;/h3&gt;" style="text;html=1;strokeColor=none;fillColor=none;align=center;verticalAlign=middle;whiteSpace=wrap;rounded=0;fontColor=#F9DBDB;" parent="1" vertex="1">
          <mxGeometry x="1010" y="-620" width="100" height="40" as="geometry" />
        </mxCell>
        <mxCell id="y94cB5j32CKqM8ODX_yV-2" value="" style="verticalLabelPosition=bottom;verticalAlign=top;html=1;shape=mxgraph.basic.rect;fillColor2=none;strokeWidth=1;size=5;indent=4;fillStyle=solid;fontColor=#e3f4ff;fillColor=#4874EC;gradientColor=#1D4AAA;gradientDirection=east;top=1;right=1;topLeftStyle=rounded;topRightStyle=rounded;bottomRightStyle=rounded;absoluteCornerSize=1;fillOpacity=100;bottomLeftStyle=rounded;strokeColor=none;points=[[0,0.5,0,0,0],[0.5,0,0,0,0],[0.5,1,0,0,0],[1,0.5,0,0,0]];fontFamily=Roboto;fontSource=https%3A%2F%2Ffonts.googleapis.com%2Fcss%3Ffamily%3DRoboto;" parent="1" vertex="1">
          <mxGeometry x="1520" y="-400" width="120" height="80" as="geometry" />
        </mxCell>
        <mxCell id="y94cB5j32CKqM8ODX_yV-3" value="&lt;h3&gt;&lt;font color=&quot;#e3f4ff&quot;&gt;WI Common&lt;/font&gt;&lt;/h3&gt;" style="text;html=1;strokeColor=none;fillColor=none;align=center;verticalAlign=middle;whiteSpace=wrap;rounded=0;fontFamily=Roboto;fontSource=https%3A%2F%2Ffonts.googleapis.com%2Fcss%3Ffamily%3DRoboto;" parent="1" vertex="1">
          <mxGeometry x="1530" y="-380" width="100" height="40" as="geometry" />
        </mxCell>
        <mxCell id="-BAkdPszw5Xz-JadCHTb-6" value="" style="verticalLabelPosition=bottom;verticalAlign=top;html=1;shape=mxgraph.basic.rect;fillColor2=none;strokeWidth=1;size=5;indent=5;fillStyle=solid;fontColor=#e3f4ff;fillColor=#f06363;gradientColor=#fd0606;gradientDirection=east;top=1;right=1;topLeftStyle=rounded;topRightStyle=rounded;bottomRightStyle=rounded;bottomLeftStyle=rounded;absoluteCornerSize=1;strokeColor=none;points=[[0,0.5,0,0,0],[0.5,0,0,0,0],[0.5,1,0,0,0],[1,0.5,0,0,0]];" parent="1" vertex="1">
          <mxGeometry x="1360" y="-530" width="120" height="80" as="geometry" />
        </mxCell>
        <mxCell id="-BAkdPszw5Xz-JadCHTb-7" value="&lt;h3&gt;&lt;font face=&quot;Roboto&quot;&gt;&lt;b&gt;Slider Activity&lt;/b&gt;&lt;/font&gt;&lt;/h3&gt;" style="text;html=1;strokeColor=none;fillColor=none;align=center;verticalAlign=middle;whiteSpace=wrap;rounded=0;fontColor=#F9DBDB;" parent="1" vertex="1">
          <mxGeometry x="1370" y="-510" width="100" height="40" as="geometry" />
        </mxCell>
      </root>
    </mxGraphModel>
  </diagram>
</mxfile>
